<svg xmlns="http://www.w3.org/2000/svg" xmlns:xlink="http://www.w3.org/1999/xlink" id="svg2" width="256" height="256" version="1.0"><defs id="defs4"><linearGradient id="linearGradient2555"><stop id="stop2557" offset="0" stop-color="#FFF" stop-opacity="1"/><stop id="stop2559" offset="1" stop-color="#FFF" stop-opacity="0"/></linearGradient><linearGradient id="linearGradient2449" x1="-344.153" x2="-395.849" y1="274.711" y2="425.4" gradientTransform="matrix(-0.5914583,0,0,0.5914584,210.0216,142.2324)" gradientUnits="userSpaceOnUse" xlink:href="#linearGradient2555"/></defs><metadata id="metadata7"/><g id="layer1" transform="translate(-373.642,-318.344)"><rect id="rect1942" width="235.008" height="234.99" x="-619.146" y="328.849" fill="#1c6f00" fill-opacity="1" fill-rule="evenodd" stroke="none" stroke-dasharray="none" stroke-dashoffset="0" stroke-linecap="square" stroke-linejoin="miter" stroke-miterlimit="4" stroke-opacity="1" stroke-width="6" rx="35.488" ry="35.488" transform="scale(-1,1)"/><path id="path1950" fill="url(#linearGradient2449)" fill-opacity="1" fill-rule="evenodd" stroke="none" stroke-dasharray=".875 1.75" stroke-dashoffset="0" stroke-linecap="square" stroke-linejoin="miter" stroke-miterlimit="4" stroke-opacity="1" stroke-width=".875" d="M 557.05665,338.89518 L 446.22721,338.89518 C 416.89033,338.89518 393.27256,362.70492 393.27256,392.28025 L 393.27256,500.40761 C 394.22216,523.49366 397.87485,508.89915 404.82758,483.3329 C 412.90814,453.61975 439.22406,427.65003 471.27219,408.1872 C 495.73352,393.33195 523.11328,383.84595 572.95174,382.94353 C 601.21656,382.43177 598.72124,346.26062 557.05665,338.89518 z" opacity=".485"/><path id="path15787" fill="#fff" fill-opacity="1" stroke="none" d="m 361.63462,101.95174 c 0,7.53154 -5.42713,13.63706 -12.12183,13.63706 -6.69471,0 -12.12183,-6.10552 -12.12183,-13.63706 0,-7.531543 5.42712,-13.637063 12.12183,-13.637063 6.6947,0 12.12183,6.10552 12.12183,13.637063 z" transform="matrix(2.4444445,0,0,2.4444445,-411.6955,196.83927)"/><path id="path15787-7" fill="#fff" fill-opacity="1" stroke="none" d="m 361.63462,101.95174 c 0,7.53154 -5.42713,13.63706 -12.12183,13.63706 -6.69471,0 -12.12183,-6.10552 -12.12183,-13.63706 0,-7.531543 5.42712,-13.637063 12.12183,-13.637063 6.6947,0 12.12183,6.10552 12.12183,13.637063 z" transform="matrix(2.4444445,0,0,2.4444445,-303.94591,143.30118)"/><path id="path15787-1" fill="#fff" fill-opacity="1" stroke="none" d="m 361.63462,101.95174 c 0,7.53154 -5.42713,13.63706 -12.12183,13.63706 -6.69471,0 -12.12183,-6.10552 -12.12183,-13.63706 0,-7.531543 5.42712,-13.637063 12.12183,-13.637063 6.6947,0 12.12183,6.10552 12.12183,13.637063 z" transform="matrix(2.4444445,0,0,2.4444445,-303.94591,253.40781)"/><path id="path16330" fill="none" stroke="#fff" stroke-dasharray="none" stroke-linecap="butt" stroke-linejoin="miter" stroke-miterlimit="4" stroke-opacity="1" stroke-width="25" d="m 451.42375,450.09524 96.97465,54.54824"/><path id="path16332" fill="none" stroke="#fff" stroke-dasharray="none" stroke-linecap="butt" stroke-linejoin="miter" stroke-miterlimit="4" stroke-opacity="1" stroke-width="25" d="m 453.44405,442.01402 86.87312,-47.47717"/></g></svg>